<?xml version="1.0" encoding="utf-8"?>
<!-- Generator: Adobe Illustrator 26.3.1, SVG Export Plug-In . SVG Version: 6.00 Build 0)  -->
<svg version="1.1" id="Layer_1" xmlns="http://www.w3.org/2000/svg" xmlns:xlink="http://www.w3.org/1999/xlink" x="0px" y="0px"
	 viewBox="0 0 331.8 35.1" style="enable-background:new 0 0 331.8 35.1;" xml:space="preserve">
<style type="text/css">
	.st0{fill:#1C3C6A;}
	.st1{fill:none;stroke:#034466;stroke-width:0.5299;stroke-miterlimit:10;}
</style>
<g>
	<g>
		<path class="st0" d="M74.82,2.2V1.37h5.35V2.2h-0.16c-0.5,0-0.83,0.09-0.98,0.28c-0.15,0.19-0.23,0.51-0.23,0.96v5.99
			c0,0.46,0.08,0.78,0.24,0.97s0.48,0.27,0.97,0.27h0.16v0.83h-5.35v-0.83c0.54,0,0.89-0.08,1.07-0.25
			c0.18-0.16,0.27-0.49,0.27-0.99V3.44c0-0.48-0.08-0.81-0.25-0.98C75.74,2.28,75.38,2.2,74.82,2.2L74.82,2.2z"/>
		<path class="st0" d="M83.23,4.25V8.9c0,0.75,0.14,1.23,0.41,1.44c0.27,0.21,0.62,0.32,1.04,0.32v0.83h-3.8v-0.83
			c0.32,0,0.61-0.08,0.84-0.24c0.24-0.16,0.39-0.34,0.45-0.55c0.06-0.21,0.1-0.53,0.1-0.97V3.74c0-1.03-0.48-1.54-1.45-1.54V1.37
			h3.42l5.54,6.19V3.85c0-1.11-0.47-1.66-1.4-1.66V1.37h3.63V2.2c-0.25,0-0.49,0.07-0.71,0.21c-0.22,0.14-0.37,0.32-0.45,0.53
			c-0.08,0.22-0.12,0.53-0.12,0.94v7.77h-0.96L83.23,4.25L83.23,4.25z"/>
		<path class="st0" d="M92.71,11.49v-0.83c0.53,0,0.89-0.08,1.06-0.25c0.17-0.17,0.26-0.5,0.26-0.99V3.43c0-0.48-0.08-0.8-0.25-0.98
			s-0.52-0.26-1.07-0.26V1.37l1.22-0.05c1.22-0.05,2.18-0.08,2.88-0.08c1.16,0,2.11,0.07,2.84,0.2s1.42,0.43,2.07,0.88
			c0.65,0.45,1.15,1.04,1.5,1.77c0.35,0.72,0.53,1.52,0.53,2.39s-0.18,1.69-0.56,2.39c-0.37,0.7-0.87,1.26-1.5,1.68
			c-0.63,0.42-1.28,0.68-1.95,0.78c-0.67,0.1-1.8,0.15-3.39,0.15L92.71,11.49L92.71,11.49z M96.68,2.16v6.97
			c0,0.45,0.02,0.75,0.06,0.9c0.04,0.15,0.15,0.29,0.34,0.4s0.46,0.16,0.84,0.16c0.94,0,1.64-0.34,2.1-1.03
			c0.47-0.69,0.7-1.71,0.7-3.08c0-1.11-0.17-1.98-0.51-2.64c-0.34-0.65-0.79-1.1-1.34-1.33C98.32,2.28,97.59,2.16,96.68,2.16
			L96.68,2.16z"/>
		<path class="st0" d="M108.76,6.65v2.5c0,0.48,0.03,0.79,0.08,0.94c0.05,0.15,0.2,0.27,0.44,0.37c0.24,0.1,0.6,0.15,1.09,0.15
			c0.66,0,1.15-0.08,1.46-0.25c0.31-0.16,0.59-0.45,0.84-0.87c0.25-0.41,0.42-0.85,0.53-1.32h0.84l-0.07,3.32h-9.25v-0.83h0.19
			c0.5,0,0.83-0.09,0.98-0.28c0.15-0.19,0.23-0.51,0.23-0.96v-6c0-0.46-0.08-0.78-0.24-0.97c-0.16-0.18-0.48-0.27-0.97-0.27h-0.19
			V1.37h8.62l0.15,2.62h-0.84c-0.15-0.46-0.31-0.82-0.5-1.09s-0.37-0.45-0.56-0.52c-0.19-0.08-0.5-0.12-0.94-0.12h-1.89v3.49h0.94
			c0.45,0,0.74-0.08,0.89-0.25c0.15-0.17,0.23-0.5,0.25-1h0.84v3.43h-0.84c0.01-0.06,0.01-0.11,0.01-0.14
			c0-0.29-0.06-0.55-0.18-0.78s-0.43-0.35-0.94-0.35L108.76,6.65L108.76,6.65z"/>
		<path class="st0" d="M118.74,7.01v2.41c0,0.46,0.08,0.78,0.24,0.97s0.48,0.27,0.98,0.27h0.23v0.83h-5.48v-0.83h0.18
			c0.5,0,0.83-0.09,0.98-0.28c0.15-0.19,0.23-0.51,0.23-0.96V3.43c0-0.46-0.08-0.78-0.24-0.97c-0.16-0.18-0.48-0.27-0.97-0.27h-0.25
			V1.37l4.1-0.09c1.02,0,1.82,0.03,2.38,0.08c0.56,0.05,1.07,0.21,1.54,0.45c0.47,0.25,0.82,0.58,1.06,0.99
			c0.24,0.41,0.35,0.86,0.35,1.35c0,0.66-0.21,1.23-0.61,1.7c-0.41,0.47-0.92,0.78-1.54,0.93c-0.61,0.15-1.42,0.23-2.43,0.23
			L118.74,7.01L118.74,7.01z M118.74,6.12h0.49c0.79,0,1.32-0.17,1.58-0.52c0.26-0.35,0.4-0.81,0.4-1.38c0-0.52-0.1-0.94-0.29-1.26
			c-0.19-0.32-0.44-0.53-0.74-0.63c-0.3-0.1-0.78-0.15-1.44-0.15L118.74,6.12L118.74,6.12z"/>
		<path class="st0" d="M128.35,6.65v2.5c0,0.48,0.03,0.79,0.08,0.94c0.05,0.15,0.2,0.27,0.44,0.37c0.24,0.1,0.6,0.15,1.09,0.15
			c0.66,0,1.15-0.08,1.46-0.25c0.31-0.16,0.59-0.45,0.84-0.87c0.25-0.41,0.42-0.85,0.53-1.32h0.84l-0.07,3.32h-9.25v-0.83h0.19
			c0.5,0,0.83-0.09,0.98-0.28c0.15-0.19,0.23-0.51,0.23-0.96v-6c0-0.46-0.08-0.78-0.24-0.97c-0.16-0.18-0.48-0.27-0.97-0.27h-0.19
			V1.37h8.62l0.15,2.62h-0.84c-0.15-0.46-0.31-0.82-0.5-1.09c-0.18-0.27-0.37-0.45-0.56-0.52c-0.19-0.08-0.5-0.12-0.94-0.12h-1.89
			v3.49h0.94c0.45,0,0.74-0.08,0.89-0.25c0.15-0.17,0.23-0.5,0.25-1h0.84v3.43h-0.84c0.01-0.06,0.01-0.11,0.01-0.14
			c0-0.29-0.06-0.55-0.18-0.78s-0.43-0.35-0.94-0.35L128.35,6.65L128.35,6.65z"/>
		<path class="st0" d="M136.75,4.25V8.9c0,0.75,0.14,1.23,0.41,1.44c0.27,0.21,0.62,0.32,1.04,0.32v0.83h-3.8v-0.83
			c0.32,0,0.61-0.08,0.84-0.24c0.24-0.16,0.39-0.34,0.45-0.55c0.06-0.21,0.1-0.53,0.1-0.97V3.74c0-1.03-0.48-1.54-1.45-1.54V1.37
			h3.42l5.54,6.19V3.85c0-1.11-0.47-1.66-1.4-1.66V1.37h3.63V2.2c-0.25,0-0.49,0.07-0.71,0.21c-0.22,0.14-0.37,0.32-0.45,0.53
			c-0.08,0.22-0.12,0.53-0.12,0.94v7.77h-0.96L136.75,4.25L136.75,4.25z"/>
		<path class="st0" d="M146.23,11.49v-0.83c0.53,0,0.89-0.08,1.06-0.25c0.17-0.17,0.26-0.5,0.26-0.99V3.43
			c0-0.48-0.08-0.8-0.25-0.98c-0.16-0.17-0.52-0.26-1.07-0.26V1.37l1.22-0.05c1.22-0.05,2.18-0.08,2.88-0.08
			c1.16,0,2.11,0.07,2.84,0.2c0.73,0.13,1.42,0.43,2.07,0.88s1.15,1.04,1.5,1.77s0.53,1.52,0.53,2.39s-0.18,1.69-0.56,2.39
			c-0.37,0.7-0.87,1.26-1.5,1.68c-0.63,0.42-1.28,0.68-1.95,0.78c-0.67,0.1-1.8,0.15-3.39,0.15L146.23,11.49L146.23,11.49z
			 M150.2,2.16v6.97c0,0.45,0.02,0.75,0.06,0.9c0.04,0.15,0.15,0.29,0.34,0.4s0.46,0.16,0.84,0.16c0.94,0,1.64-0.34,2.1-1.03
			c0.47-0.69,0.7-1.71,0.7-3.08c0-1.11-0.17-1.98-0.51-2.64c-0.34-0.65-0.79-1.1-1.34-1.33S151.11,2.16,150.2,2.16L150.2,2.16z"/>
		<path class="st0" d="M162.28,6.65v2.5c0,0.48,0.03,0.79,0.08,0.94c0.05,0.15,0.2,0.27,0.44,0.37c0.24,0.1,0.6,0.15,1.09,0.15
			c0.66,0,1.15-0.08,1.46-0.25c0.31-0.16,0.59-0.45,0.84-0.87c0.25-0.41,0.42-0.85,0.53-1.32h0.84l-0.07,3.32h-9.25v-0.83h0.19
			c0.5,0,0.83-0.09,0.98-0.28c0.15-0.19,0.23-0.51,0.23-0.96v-6c0-0.46-0.08-0.78-0.24-0.97c-0.16-0.18-0.48-0.27-0.97-0.27h-0.19
			V1.37h8.62L167,3.99h-0.84c-0.15-0.46-0.31-0.82-0.5-1.09c-0.18-0.27-0.37-0.45-0.56-0.52c-0.19-0.08-0.5-0.12-0.94-0.12h-1.89
			v3.49h0.94c0.45,0,0.74-0.08,0.89-0.25s0.23-0.5,0.25-1h0.84v3.43h-0.84c0.01-0.06,0.01-0.11,0.01-0.14
			c0-0.29-0.06-0.55-0.18-0.78s-0.43-0.35-0.94-0.35L162.28,6.65L162.28,6.65z"/>
		<path class="st0" d="M170.68,4.25V8.9c0,0.75,0.14,1.23,0.41,1.44c0.27,0.21,0.62,0.32,1.04,0.32v0.83h-3.8v-0.83
			c0.32,0,0.61-0.08,0.84-0.24c0.24-0.16,0.39-0.34,0.45-0.55c0.06-0.21,0.1-0.53,0.1-0.97V3.74c0-1.03-0.48-1.54-1.45-1.54V1.37
			h3.42l5.54,6.19V3.85c0-1.11-0.47-1.66-1.4-1.66V1.37h3.63V2.2c-0.25,0-0.49,0.07-0.71,0.21c-0.22,0.14-0.37,0.32-0.45,0.53
			c-0.08,0.22-0.12,0.53-0.12,0.94v7.77h-0.96L170.68,4.25L170.68,4.25z"/>
		<path class="st0" d="M183.83,2.27h-0.85c-0.51,0-0.88,0.05-1.12,0.16c-0.24,0.11-0.44,0.33-0.6,0.65
			c-0.16,0.33-0.26,0.71-0.29,1.16h-0.84V1.37h10.13v2.88h-0.84c-0.16-0.78-0.38-1.3-0.67-1.57c-0.29-0.27-0.75-0.41-1.38-0.41
			h-0.87v7.15c0,0.46,0.08,0.78,0.24,0.97c0.16,0.18,0.49,0.27,0.99,0.27h0.26v0.83h-5.59v-0.83h0.24c0.51,0,0.84-0.09,0.99-0.28
			c0.15-0.19,0.23-0.51,0.23-0.96L183.83,2.27L183.83,2.27z"/>
		<path class="st0" d="M198.6,6.66v2.76c0,0.46,0.08,0.78,0.24,0.97c0.16,0.18,0.49,0.27,0.99,0.27h0.21v0.83h-5.45v-0.83h0.15
			c0.5,0,0.83-0.09,0.98-0.28c0.15-0.19,0.23-0.51,0.23-0.96v-6c0-0.46-0.08-0.78-0.24-0.97c-0.16-0.18-0.48-0.27-0.97-0.27h-0.18
			V1.37h8.48l0.07,2.68h-0.84c-0.12-0.46-0.28-0.83-0.48-1.11c-0.19-0.28-0.4-0.47-0.6-0.55s-0.53-0.13-0.96-0.13h-1.64v3.49h0.8
			c0.38,0,0.64-0.08,0.79-0.24c0.15-0.16,0.24-0.49,0.27-1h0.84v3.48h-0.84c-0.02-0.54-0.11-0.9-0.26-1.07
			c-0.15-0.17-0.42-0.26-0.81-0.26H198.6L198.6,6.66z"/>
		<path class="st0" d="M212.58,8.12l-0.05,3.37h-9.22v-0.83h0.15c0.51,0,0.84-0.09,0.99-0.28c0.15-0.19,0.23-0.51,0.23-0.96V3.44
			c0-0.46-0.08-0.78-0.24-0.97c-0.16-0.18-0.48-0.27-0.98-0.27h-0.15V1.37h5.43V2.2h-0.2c-0.51,0-0.84,0.09-0.99,0.28
			c-0.15,0.19-0.23,0.51-0.23,0.96v5.78c0,0.43,0.02,0.72,0.08,0.86c0.05,0.14,0.18,0.26,0.39,0.36c0.21,0.1,0.58,0.15,1.11,0.15
			c0.89,0,1.55-0.22,1.99-0.67c0.44-0.45,0.74-1.04,0.9-1.8L212.58,8.12L212.58,8.12z"/>
		<path class="st0" d="M213.24,6.4c0-0.91,0.25-1.8,0.76-2.66c0.51-0.87,1.2-1.51,2.06-1.92c0.87-0.41,1.8-0.62,2.79-0.62
			c1.78,0,3.18,0.51,4.19,1.54c1.01,1.03,1.52,2.29,1.52,3.78s-0.51,2.64-1.51,3.66c-1.01,1.02-2.38,1.53-4.12,1.53
			c-1.19,0-2.24-0.25-3.15-0.75c-0.91-0.5-1.56-1.18-1.95-2.03C213.43,8.07,213.24,7.23,213.24,6.4L213.24,6.4z M216.36,6.32
			c0,1.56,0.21,2.68,0.63,3.37c0.42,0.69,1.04,1.03,1.87,1.03s1.51-0.31,1.95-0.94c0.44-0.63,0.66-1.73,0.66-3.31
			c0-1.44-0.21-2.52-0.61-3.23s-1.06-1.07-1.96-1.07c-0.85,0-1.48,0.33-1.9,0.99S216.36,4.87,216.36,6.32L216.36,6.32z"/>
		<path class="st0" d="M225.83,6.4c0-0.91,0.25-1.8,0.76-2.66c0.51-0.87,1.2-1.51,2.06-1.92c0.87-0.41,1.8-0.62,2.79-0.62
			c1.78,0,3.18,0.51,4.19,1.54s1.52,2.29,1.52,3.78s-0.51,2.64-1.51,3.66c-1.01,1.02-2.38,1.53-4.12,1.53
			c-1.19,0-2.24-0.25-3.15-0.75c-0.91-0.5-1.56-1.18-1.95-2.03C226.02,8.07,225.83,7.23,225.83,6.4L225.83,6.4z M228.95,6.32
			c0,1.56,0.21,2.68,0.63,3.37c0.42,0.69,1.04,1.03,1.87,1.03s1.51-0.31,1.95-0.94c0.44-0.63,0.66-1.73,0.66-3.31
			c0-1.44-0.21-2.52-0.61-3.23c-0.41-0.71-1.06-1.07-1.96-1.07c-0.85,0-1.48,0.33-1.9,0.99S228.95,4.87,228.95,6.32L228.95,6.32z"/>
		<path class="st0" d="M242.06,7.03v2.4c0,0.46,0.08,0.78,0.24,0.97c0.16,0.18,0.48,0.27,0.98,0.27h0.18v0.83H238v-0.83h0.2
			c0.51,0,0.84-0.09,0.99-0.28c0.15-0.19,0.23-0.51,0.23-0.96V3.43c0-0.46-0.08-0.78-0.24-0.97c-0.16-0.18-0.48-0.27-0.98-0.27H238
			V1.37l4.06-0.01l0.91-0.01c0.9,0,1.56,0.03,1.97,0.09c0.41,0.06,0.82,0.2,1.23,0.43c0.4,0.23,0.72,0.54,0.95,0.93
			c0.23,0.39,0.35,0.82,0.35,1.27c0,1.2-0.68,2.03-2.04,2.47c0.36,0.23,0.93,0.94,1.69,2.15c0.6,0.93,1.02,1.49,1.28,1.68
			c0.25,0.19,0.53,0.29,0.84,0.29v0.83h-3.16c-0.29-0.34-0.82-1.21-1.6-2.61c-0.39-0.71-0.67-1.16-0.83-1.37
			c-0.16-0.2-0.32-0.33-0.49-0.39C242.98,7.06,242.62,7.03,242.06,7.03L242.06,7.03z M242.06,6.12c0.84,0.01,1.41-0.04,1.7-0.15
			c0.29-0.11,0.52-0.31,0.69-0.6c0.17-0.29,0.25-0.68,0.25-1.18c0-0.71-0.17-1.2-0.5-1.48c-0.34-0.27-0.91-0.41-1.74-0.41
			c-0.1,0-0.24,0-0.41,0.01V6.12L242.06,6.12z"/>
		<path class="st0" d="M249.85,11.32V7.85h0.9c0.25,1.04,0.62,1.77,1.12,2.22s1.04,0.66,1.61,0.66c0.43,0,0.77-0.13,1.02-0.38
			c0.25-0.25,0.38-0.55,0.38-0.9c0-0.24-0.08-0.49-0.24-0.73c-0.16-0.24-0.54-0.51-1.13-0.81c-1.15-0.57-1.93-0.99-2.33-1.26
			c-0.4-0.27-0.73-0.61-0.97-1.03c-0.24-0.42-0.37-0.9-0.37-1.44c0-0.87,0.31-1.59,0.94-2.15c0.62-0.56,1.35-0.85,2.17-0.85
			c0.82,0,1.59,0.29,2.19,0.87c0.1-0.15,0.18-0.38,0.25-0.69h0.86v2.99h-0.84c-0.15-0.66-0.43-1.21-0.85-1.64
			c-0.42-0.43-0.89-0.64-1.41-0.64c-0.39,0-0.71,0.11-0.94,0.33c-0.23,0.22-0.35,0.49-0.35,0.82c0,0.25,0.08,0.49,0.22,0.71
			c0.15,0.22,0.35,0.4,0.61,0.54s0.79,0.4,1.61,0.79c0.74,0.35,1.28,0.66,1.64,0.93c0.35,0.27,0.63,0.62,0.84,1.03
			c0.21,0.41,0.31,0.86,0.31,1.35c0,0.9-0.33,1.64-0.99,2.23c-0.66,0.59-1.45,0.89-2.36,0.89c-0.52,0-1.03-0.11-1.53-0.33
			c-0.5-0.22-0.9-0.51-1.2-0.87c-0.12,0.22-0.2,0.5-0.25,0.82L249.85,11.32L249.85,11.32z"/>
	</g>
	<g>
		<path class="st0" d="M38.19,31.46h-4.12v-0.59c0.35,0,0.6-0.02,0.76-0.07c0.16-0.05,0.24-0.17,0.24-0.35
			c0-0.13-0.03-0.26-0.08-0.39l-0.41-1.03h-2.84l-0.21,0.57c-0.12,0.32-0.18,0.55-0.18,0.69c0,0.26,0.1,0.42,0.3,0.49
			c0.2,0.07,0.43,0.1,0.7,0.1v0.59h-3.01v-0.59c0.24,0,0.45-0.05,0.61-0.14c0.17-0.09,0.33-0.26,0.48-0.51
			c0.15-0.25,0.32-0.61,0.49-1.07l2.52-6.6h0.61l2.66,6.81c0.19,0.48,0.34,0.81,0.42,0.98c0.09,0.17,0.21,0.3,0.37,0.39
			c0.16,0.09,0.38,0.14,0.67,0.14L38.19,31.46L38.19,31.46z M34.34,28.39l-1.21-3.05l-1.15,3.05H34.34z"/>
		<path class="st0" d="M47.16,25.2h-0.61c-0.06-0.54-0.18-0.94-0.36-1.2s-0.38-0.42-0.59-0.48c-0.21-0.06-0.45-0.09-0.73-0.09h-1.11
			v6.4c0,0.25,0.03,0.45,0.08,0.59c0.05,0.14,0.17,0.25,0.36,0.33c0.19,0.08,0.47,0.12,0.83,0.12v0.59h-4.38v-0.59
			c0.54,0,0.88-0.08,1.04-0.23c0.15-0.15,0.23-0.42,0.23-0.8v-6.4h-0.93c-0.37,0-0.67,0.03-0.91,0.09
			c-0.24,0.06-0.45,0.22-0.64,0.48c-0.18,0.26-0.29,0.66-0.31,1.2h-0.61v-2.48h8.64L47.16,25.2L47.16,25.2z"/>
		<path class="st0" d="M60.11,27.17c0,0.63-0.11,1.2-0.32,1.71s-0.49,0.93-0.83,1.27s-0.7,0.6-1.09,0.77
			c-0.82,0.36-1.82,0.54-3,0.54h-3.99v-0.59c0.37,0,0.65-0.04,0.84-0.11c0.19-0.07,0.31-0.18,0.37-0.32s0.09-0.34,0.09-0.61v-5.52
			c0-0.38-0.08-0.64-0.23-0.8c-0.15-0.15-0.51-0.23-1.06-0.23v-0.61l1.87-0.04c0.06,0,0.33,0,0.79-0.01
			c0.46-0.01,0.73-0.01,0.8-0.01c0.72,0,1.33,0.04,1.83,0.12c0.5,0.08,0.96,0.2,1.38,0.37c0.38,0.15,0.74,0.37,1.06,0.65
			c0.32,0.28,0.59,0.59,0.81,0.95c0.22,0.35,0.39,0.74,0.51,1.16S60.11,26.71,60.11,27.17L60.11,27.17z M58.02,27.13
			c0-0.91-0.17-1.67-0.52-2.28c-0.35-0.61-0.81-1.04-1.41-1.27c-0.26-0.1-0.53-0.17-0.82-0.2c-0.29-0.03-0.71-0.04-1.25-0.04v6.14
			c0,0.35,0.02,0.61,0.05,0.77c0.03,0.16,0.14,0.28,0.3,0.37c0.17,0.08,0.43,0.13,0.78,0.13c1.04,0,1.78-0.37,2.21-1.1
			C57.81,28.92,58.02,28.08,58.02,27.13L58.02,27.13z"/>
		<path class="st0" d="M68.75,28.54l-0.06,2.92h-7.78v-0.59c0.54,0,0.88-0.08,1.04-0.23c0.15-0.15,0.23-0.42,0.23-0.8v-5.49
			c0-0.25-0.03-0.45-0.08-0.59c-0.05-0.14-0.17-0.25-0.36-0.33c-0.19-0.08-0.47-0.12-0.84-0.12v-0.59h4.4v0.59
			c-0.37,0-0.64,0.04-0.83,0.11c-0.19,0.07-0.31,0.18-0.37,0.32c-0.06,0.14-0.09,0.34-0.09,0.6v5.03c0,0.4,0.02,0.68,0.06,0.85
			c0.04,0.17,0.14,0.3,0.31,0.39c0.17,0.09,0.45,0.13,0.84,0.13c0.49,0,0.93-0.04,1.3-0.11c0.37-0.08,0.71-0.28,1.03-0.6
			c0.31-0.32,0.51-0.82,0.59-1.49L68.75,28.54L68.75,28.54z"/>
		<path class="st0" d="M76.52,24.99h-0.61c-0.11-0.48-0.25-0.84-0.43-1.06c-0.18-0.22-0.38-0.36-0.6-0.41
			c-0.22-0.05-0.53-0.08-0.92-0.08h-1.56v3.09h0.82c0.39,0,0.65-0.07,0.79-0.2c0.14-0.13,0.22-0.43,0.25-0.88h0.59v2.91h-0.61
			c-0.02-0.34-0.06-0.58-0.12-0.72c-0.06-0.15-0.16-0.25-0.3-0.3c-0.14-0.06-0.35-0.08-0.63-0.08h-0.79v2.6
			c0,0.35,0.07,0.61,0.21,0.78c0.14,0.17,0.47,0.25,1,0.25h0.18v0.59h-4.49v-0.59c0.53,0,0.88-0.08,1.03-0.24
			c0.15-0.16,0.23-0.42,0.23-0.8v-5.49c0-0.25-0.03-0.44-0.08-0.58c-0.05-0.14-0.17-0.25-0.35-0.33s-0.46-0.12-0.83-0.12v-0.59h7.15
			L76.52,24.99L76.52,24.99z"/>
		<path class="st0" d="M88.8,31.37H88.2c-0.09-0.37-0.24-0.7-0.45-0.99c-0.33,0.34-0.7,0.63-1.12,0.88
			c-0.42,0.25-0.99,0.37-1.71,0.37c-0.79,0-1.52-0.19-2.19-0.57c-0.67-0.38-1.21-0.92-1.61-1.6c-0.4-0.68-0.6-1.46-0.6-2.32
			c0-0.61,0.11-1.19,0.33-1.75c0.22-0.55,0.53-1.04,0.93-1.46c0.4-0.42,0.88-0.75,1.44-0.99c0.56-0.24,1.17-0.36,1.83-0.36
			c1.09,0,1.99,0.36,2.71,1.07c0.09-0.18,0.19-0.45,0.28-0.81h0.58l0.1,3.22h-0.62c-0.11-0.55-0.31-1.03-0.61-1.46
			c-0.29-0.43-0.64-0.75-1.04-0.98c-0.4-0.23-0.82-0.34-1.26-0.34c-0.49,0-0.93,0.13-1.32,0.4c-0.39,0.27-0.7,0.68-0.92,1.23
			c-0.22,0.55-0.33,1.24-0.33,2.06c0,0.82,0.09,1.46,0.28,2c0.18,0.53,0.41,0.93,0.69,1.2c0.27,0.27,0.55,0.45,0.82,0.55
			s0.53,0.15,0.77,0.15c0.53,0,1.01-0.14,1.43-0.43c0.42-0.28,0.77-0.64,1.04-1.07s0.45-0.86,0.54-1.29h0.62L88.8,31.37L88.8,31.37z
			"/>
		<path class="st0" d="M94.19,31.46h-4.43v-0.59c0.37,0,0.65-0.04,0.84-0.11c0.19-0.07,0.31-0.18,0.37-0.32
			c0.06-0.14,0.09-0.34,0.09-0.61v-5.49c0-0.38-0.08-0.64-0.24-0.8c-0.16-0.15-0.51-0.23-1.06-0.23v-0.59h4.43v0.59
			c-0.37,0-0.65,0.04-0.84,0.11c-0.19,0.07-0.31,0.18-0.37,0.32c-0.06,0.14-0.09,0.34-0.09,0.6v5.49c0,0.25,0.03,0.45,0.08,0.59
			c0.06,0.14,0.18,0.25,0.36,0.33s0.47,0.12,0.85,0.12L94.19,31.46L94.19,31.46z"/>
		<path class="st0" d="M103.32,25.2h-0.61c-0.06-0.54-0.18-0.94-0.36-1.2c-0.18-0.26-0.38-0.42-0.59-0.48
			c-0.21-0.06-0.45-0.09-0.73-0.09h-1.11v6.4c0,0.25,0.03,0.45,0.08,0.59c0.05,0.14,0.17,0.25,0.36,0.33
			c0.19,0.08,0.47,0.12,0.83,0.12v0.59h-4.38v-0.59c0.54,0,0.88-0.08,1.04-0.23c0.15-0.15,0.23-0.42,0.23-0.8v-6.4h-0.93
			c-0.37,0-0.67,0.03-0.91,0.09C96,23.58,95.79,23.74,95.6,24c-0.18,0.26-0.29,0.66-0.31,1.2h-0.61v-2.48h8.64L103.32,25.2
			L103.32,25.2z"/>
		<path class="st0" d="M112.72,23.31c-0.24,0.02-0.43,0.07-0.59,0.16c-0.16,0.09-0.31,0.24-0.47,0.45
			c-0.16,0.21-0.39,0.54-0.69,1.01l-1.84,2.84v2.07c0,0.24,0.02,0.42,0.07,0.57c0.05,0.14,0.16,0.25,0.35,0.34
			c0.18,0.08,0.46,0.13,0.85,0.13v0.59h-4.4v-0.59c0.37,0,0.64-0.04,0.83-0.11c0.19-0.07,0.31-0.18,0.37-0.32
			c0.06-0.14,0.09-0.34,0.09-0.61v-1.95l-2.19-3.65c-0.02-0.03-0.04-0.05-0.05-0.09c-0.02-0.03-0.03-0.05-0.04-0.06
			c-0.19-0.31-0.36-0.51-0.51-0.61c-0.15-0.09-0.37-0.15-0.65-0.16v-0.59h4.09v0.59c-0.21,0-0.37,0.01-0.49,0.02
			c-0.12,0.01-0.22,0.05-0.29,0.1c-0.08,0.06-0.11,0.14-0.11,0.26c0,0.08,0.03,0.18,0.08,0.3c0.05,0.12,0.17,0.33,0.35,0.65
			l1.36,2.3l1.3-2.05c0.28-0.44,0.42-0.77,0.42-0.97c0-0.27-0.09-0.44-0.26-0.51c-0.18-0.07-0.42-0.1-0.74-0.1v-0.59h3.18
			L112.72,23.31L112.72,23.31z"/>
		<path class="st0" d="M124.07,25.05c0,0.72-0.22,1.26-0.66,1.63c-0.44,0.37-0.96,0.61-1.56,0.71c-0.6,0.11-1.23,0.16-1.89,0.16
			h-0.58v2.28c0,0.26,0.03,0.46,0.08,0.6c0.06,0.14,0.18,0.25,0.36,0.32c0.18,0.07,0.47,0.11,0.84,0.11v0.59h-4.4v-0.59
			c0.37,0,0.65-0.04,0.83-0.12c0.18-0.08,0.29-0.19,0.35-0.33c0.05-0.14,0.08-0.34,0.08-0.59v-5.52c0-0.25-0.03-0.44-0.08-0.58
			c-0.05-0.14-0.17-0.25-0.35-0.33c-0.18-0.08-0.46-0.12-0.83-0.12v-0.61l2.5-0.06c0.13,0,0.27-0.01,0.42-0.01
			c0.15,0,0.27,0,0.36-0.01c0.09,0,0.22,0,0.4,0c0.22,0,0.38,0,0.49,0.01c0.51,0.02,1,0.07,1.48,0.15c0.47,0.08,0.95,0.3,1.43,0.65
			C123.82,23.77,124.06,24.32,124.07,25.05L124.07,25.05z M122.08,25.06c0-0.7-0.2-1.16-0.61-1.4c-0.41-0.23-0.94-0.35-1.6-0.35
			c-0.12,0-0.29,0-0.5,0.01v3.51h0.59c0.63,0,1.14-0.11,1.53-0.32C121.88,26.3,122.08,25.81,122.08,25.06L122.08,25.06z"/>
		<path class="st0" d="M134.85,31.46h-4.3v-0.59c0.35,0,0.62-0.04,0.8-0.12c0.18-0.08,0.3-0.19,0.35-0.34
			c0.05-0.15,0.08-0.34,0.08-0.58v-2.62h-4.05v2.62c0,0.36,0.08,0.62,0.23,0.79c0.15,0.16,0.49,0.25,1.03,0.25v0.59h-4.33v-0.59
			c0.35,0,0.61-0.04,0.8-0.12c0.18-0.08,0.3-0.19,0.35-0.33c0.05-0.14,0.08-0.34,0.08-0.58v-5.49c0-0.25-0.03-0.44-0.08-0.58
			c-0.05-0.14-0.17-0.25-0.34-0.33c-0.18-0.08-0.45-0.12-0.81-0.12v-0.59h4.33v0.59c-0.53,0-0.88,0.08-1.03,0.24
			c-0.15,0.16-0.23,0.42-0.23,0.79v2.15h4.05v-2.15c0-0.25-0.02-0.44-0.07-0.58c-0.05-0.14-0.16-0.25-0.34-0.33
			c-0.18-0.08-0.45-0.12-0.82-0.12v-0.59h4.3v0.59c-0.37,0-0.64,0.04-0.81,0.12c-0.18,0.08-0.29,0.19-0.34,0.33
			c-0.05,0.14-0.07,0.33-0.07,0.58v5.49c0,0.24,0.02,0.42,0.07,0.56s0.16,0.25,0.34,0.34c0.18,0.09,0.45,0.13,0.82,0.13
			L134.85,31.46L134.85,31.46z"/>
		<path class="st0" d="M144.01,31.46h-4.12v-0.59c0.35,0,0.6-0.02,0.76-0.07s0.24-0.17,0.24-0.35c0-0.13-0.03-0.26-0.08-0.39
			l-0.41-1.03h-2.84l-0.21,0.57c-0.12,0.32-0.18,0.55-0.18,0.69c0,0.26,0.1,0.42,0.3,0.49c0.2,0.07,0.43,0.1,0.7,0.1v0.59h-3.01
			v-0.59c0.24,0,0.45-0.05,0.61-0.14c0.17-0.09,0.33-0.26,0.48-0.51c0.15-0.25,0.32-0.61,0.49-1.07l2.52-6.6h0.61l2.66,6.81
			c0.19,0.48,0.34,0.81,0.42,0.98c0.09,0.17,0.21,0.3,0.37,0.39c0.16,0.09,0.38,0.14,0.67,0.14L144.01,31.46L144.01,31.46z
			 M140.17,28.39l-1.21-3.05l-1.15,3.05H140.17L140.17,28.39z"/>
		<path class="st0" d="M150.99,28.95c0,0.27-0.06,0.56-0.17,0.86c-0.12,0.3-0.29,0.59-0.52,0.87c-0.23,0.28-0.53,0.5-0.89,0.68
			c-0.36,0.17-0.77,0.26-1.24,0.26s-0.92-0.1-1.38-0.3c-0.46-0.2-0.84-0.5-1.16-0.9c-0.14,0.32-0.23,0.61-0.26,0.88h-0.59v-2.99
			h0.59c0.11,0.43,0.25,0.83,0.45,1.21c0.19,0.38,0.46,0.7,0.8,0.98s0.77,0.41,1.27,0.41c0.44,0,0.79-0.12,1.05-0.36
			c0.26-0.24,0.4-0.54,0.4-0.91c0-0.21-0.04-0.39-0.12-0.54c-0.08-0.15-0.2-0.29-0.35-0.41c-0.15-0.12-0.37-0.25-0.64-0.39
			c-0.27-0.14-0.58-0.29-0.92-0.44c-0.53-0.25-0.96-0.5-1.3-0.75c-0.34-0.25-0.6-0.5-0.77-0.74c-0.17-0.24-0.29-0.47-0.36-0.68
			c-0.07-0.21-0.1-0.43-0.1-0.65c0-0.39,0.11-0.78,0.31-1.16c0.21-0.38,0.52-0.69,0.92-0.94c0.41-0.24,0.88-0.36,1.41-0.36
			c0.41,0,0.8,0.09,1.17,0.27c0.37,0.18,0.69,0.43,0.96,0.75c0.08-0.18,0.15-0.43,0.21-0.76h0.61v2.44h-0.61
			c-0.43-1.33-1.18-1.99-2.24-1.99c-0.39,0-0.7,0.1-0.93,0.31c-0.23,0.2-0.35,0.47-0.35,0.79c0,0.25,0.07,0.47,0.22,0.66
			c0.15,0.19,0.34,0.35,0.58,0.48c0.24,0.13,0.62,0.32,1.16,0.57c0.64,0.31,1.15,0.57,1.51,0.79c0.36,0.22,0.67,0.51,0.92,0.84
			C150.87,28.06,150.99,28.47,150.99,28.95L150.99,28.95z"/>
		<path class="st0" d="M159.6,28.59l-0.07,2.87h-7.78v-0.59c0.54,0,0.88-0.08,1.04-0.23c0.15-0.15,0.23-0.42,0.23-0.8v-5.49
			c0-0.25-0.02-0.44-0.07-0.58c-0.05-0.14-0.17-0.25-0.35-0.33c-0.18-0.08-0.47-0.12-0.85-0.12v-0.59H159l0.12,2.27h-0.59
			c-0.13-0.5-0.29-0.86-0.46-1.08c-0.17-0.22-0.37-0.35-0.59-0.4c-0.22-0.05-0.54-0.07-0.98-0.07h-1.64v3.09h0.89
			c0.31,0,0.53-0.03,0.68-0.08c0.15-0.05,0.26-0.16,0.31-0.31c0.06-0.15,0.1-0.39,0.12-0.71h0.62v2.91h-0.59
			c-0.02-0.32-0.06-0.56-0.13-0.71c-0.07-0.15-0.18-0.25-0.33-0.31c-0.15-0.05-0.38-0.08-0.68-0.08h-0.9v2.06
			c0,0.34,0.01,0.6,0.03,0.75c0.02,0.16,0.06,0.29,0.14,0.4c0.08,0.11,0.2,0.18,0.37,0.23c0.17,0.05,0.41,0.07,0.72,0.07h0.7
			c0.3,0,0.58-0.04,0.85-0.11c0.27-0.08,0.53-0.27,0.79-0.58c0.26-0.31,0.44-0.8,0.54-1.47L159.6,28.59L159.6,28.59z"/>
		<path class="st0" d="M167.81,31.46h-4.43v-0.59c0.37,0,0.65-0.04,0.84-0.11c0.19-0.07,0.31-0.18,0.37-0.32
			c0.06-0.14,0.09-0.34,0.09-0.61v-5.49c0-0.38-0.08-0.64-0.24-0.8c-0.16-0.15-0.51-0.23-1.06-0.23v-0.59h4.43v0.59
			c-0.37,0-0.65,0.04-0.84,0.11s-0.31,0.18-0.37,0.32c-0.06,0.14-0.09,0.34-0.09,0.6v5.49c0,0.25,0.03,0.45,0.08,0.59
			c0.06,0.14,0.18,0.25,0.36,0.33c0.18,0.08,0.47,0.12,0.85,0.12L167.81,31.46L167.81,31.46z"/>
		<path class="st0" d="M171.02,31.42c0,0.42-0.09,0.81-0.27,1.17c-0.18,0.36-0.44,0.65-0.79,0.88c-0.35,0.23-0.77,0.38-1.25,0.45
			v-0.59c0.48-0.09,0.87-0.26,1.16-0.51c0.29-0.24,0.44-0.55,0.44-0.92c0-0.09-0.02-0.17-0.06-0.23c-0.04-0.06-0.09-0.09-0.17-0.09
			c-0.04,0-0.11,0.01-0.21,0.03c-0.08,0.03-0.18,0.04-0.31,0.04c-0.23,0-0.45-0.09-0.64-0.28c-0.2-0.19-0.3-0.42-0.3-0.7
			c0-0.31,0.1-0.56,0.31-0.74c0.21-0.18,0.45-0.28,0.73-0.28c0.2,0,0.41,0.07,0.62,0.2c0.21,0.13,0.39,0.33,0.53,0.6
			C170.94,30.72,171.02,31.04,171.02,31.42L171.02,31.42z"/>
		<path class="st0" d="M179.37,31.46h-4.43v-0.59c0.37,0,0.65-0.04,0.84-0.11c0.19-0.07,0.31-0.18,0.37-0.32
			c0.06-0.14,0.09-0.34,0.09-0.61v-5.49c0-0.38-0.08-0.64-0.24-0.8c-0.16-0.15-0.51-0.23-1.06-0.23v-0.59h4.43v0.59
			c-0.37,0-0.65,0.04-0.84,0.11c-0.19,0.07-0.31,0.18-0.37,0.32c-0.06,0.14-0.09,0.34-0.09,0.6v5.49c0,0.25,0.03,0.45,0.08,0.59
			c0.06,0.14,0.18,0.25,0.36,0.33c0.18,0.08,0.47,0.12,0.85,0.12L179.37,31.46L179.37,31.46z"/>
		<path class="st0" d="M184.19,31.46h-4.43v-0.59c0.37,0,0.65-0.04,0.84-0.11c0.19-0.07,0.31-0.18,0.37-0.32
			c0.06-0.14,0.09-0.34,0.09-0.61v-5.49c0-0.38-0.08-0.64-0.24-0.8c-0.16-0.15-0.51-0.23-1.06-0.23v-0.59h4.43v0.59
			c-0.37,0-0.65,0.04-0.84,0.11s-0.31,0.18-0.37,0.32c-0.06,0.14-0.09,0.34-0.09,0.6v5.49c0,0.25,0.03,0.45,0.08,0.59
			c0.06,0.14,0.18,0.25,0.36,0.33c0.18,0.08,0.47,0.12,0.85,0.12L184.19,31.46L184.19,31.46z"/>
		<path class="st0" d="M197.02,29.49c-0.02,0.34-0.1,0.67-0.23,0.99c-0.13,0.32-0.33,0.59-0.6,0.81c-0.27,0.22-0.61,0.33-1.01,0.33
			c-0.2,0-0.4-0.03-0.6-0.1s-0.41-0.18-0.64-0.35c-0.23-0.17-0.51-0.41-0.84-0.75c-0.43,0.41-0.87,0.71-1.31,0.91
			s-0.87,0.3-1.27,0.3c-0.46,0-0.88-0.11-1.25-0.33c-0.37-0.22-0.66-0.51-0.86-0.86c-0.2-0.36-0.3-0.74-0.3-1.15
			c0-0.24,0.04-0.5,0.12-0.78c0.08-0.28,0.27-0.61,0.57-0.97c0.3-0.37,0.73-0.71,1.31-1.01c-0.22-0.38-0.38-0.71-0.5-1.01
			c-0.11-0.29-0.17-0.61-0.17-0.95s0.06-0.62,0.19-0.88c0.12-0.26,0.28-0.47,0.48-0.64c0.2-0.16,0.42-0.28,0.67-0.37
			c0.25-0.09,0.5-0.13,0.75-0.13c0.37,0,0.7,0.08,0.98,0.25s0.49,0.38,0.64,0.64c0.15,0.26,0.22,0.53,0.22,0.81
			c0,0.37-0.13,0.74-0.4,1.1c-0.27,0.36-0.66,0.68-1.17,0.94l1.99,2.6c0.24-0.3,0.45-0.6,0.64-0.91c0.18-0.31,0.27-0.6,0.27-0.89
			c0-0.09-0.04-0.21-0.13-0.35c-0.08-0.14-0.27-0.21-0.55-0.21v-0.59h2.65v0.59c-0.24,0.05-0.43,0.12-0.57,0.22
			c-0.15,0.09-0.27,0.21-0.39,0.36c-0.11,0.15-0.3,0.43-0.57,0.85l-0.28,0.45c-0.24,0.37-0.47,0.69-0.7,0.95
			c0.21,0.3,0.45,0.57,0.72,0.81c0.28,0.24,0.53,0.36,0.77,0.36c0.12,0,0.23-0.03,0.34-0.09s0.2-0.17,0.28-0.34
			c0.08-0.16,0.14-0.37,0.17-0.61L197.02,29.49L197.02,29.49z M192.71,29.98l-2.27-2.95c-0.64,0.39-0.97,0.87-0.97,1.44
			c0,0.33,0.09,0.65,0.26,0.97c0.17,0.32,0.4,0.58,0.69,0.79c0.29,0.21,0.6,0.31,0.93,0.31c0.27,0,0.51-0.05,0.72-0.16
			C192.28,30.28,192.5,30.14,192.71,29.98L192.71,29.98z M192.45,24.22c0-0.18-0.03-0.34-0.1-0.5c-0.07-0.15-0.17-0.28-0.31-0.38
			c-0.14-0.1-0.3-0.15-0.49-0.15c-0.27,0-0.48,0.09-0.64,0.26c-0.15,0.17-0.23,0.37-0.23,0.58c0,0.5,0.24,1.08,0.72,1.74
			c0.31-0.24,0.57-0.47,0.76-0.69C192.35,24.86,192.45,24.57,192.45,24.22L192.45,24.22z"/>
		<path class="st0" d="M205.11,31.46h-4.43v-0.59c0.37,0,0.65-0.04,0.84-0.11c0.19-0.07,0.31-0.18,0.37-0.32
			c0.06-0.14,0.09-0.34,0.09-0.61v-5.49c0-0.38-0.08-0.64-0.24-0.8c-0.16-0.15-0.51-0.23-1.06-0.23v-0.59h4.43v0.59
			c-0.37,0-0.65,0.04-0.84,0.11c-0.19,0.07-0.31,0.18-0.37,0.32s-0.09,0.34-0.09,0.6v5.49c0,0.25,0.03,0.45,0.08,0.59
			c0.06,0.14,0.18,0.25,0.36,0.33c0.18,0.08,0.47,0.12,0.85,0.12L205.11,31.46L205.11,31.46z"/>
		<path class="st0" d="M209.92,31.46h-4.43v-0.59c0.37,0,0.65-0.04,0.84-0.11c0.19-0.07,0.31-0.18,0.37-0.32
			c0.06-0.14,0.09-0.34,0.09-0.61v-5.49c0-0.38-0.08-0.64-0.24-0.8c-0.16-0.15-0.51-0.23-1.06-0.23v-0.59h4.43v0.59
			c-0.37,0-0.65,0.04-0.84,0.11c-0.19,0.07-0.31,0.18-0.37,0.32c-0.06,0.14-0.09,0.34-0.09,0.6v5.49c0,0.25,0.03,0.45,0.08,0.59
			c0.06,0.14,0.18,0.25,0.36,0.33c0.18,0.08,0.47,0.12,0.85,0.12L209.92,31.46L209.92,31.46z"/>
		<path class="st0" d="M214.74,31.46h-4.43v-0.59c0.37,0,0.65-0.04,0.84-0.11c0.19-0.07,0.31-0.18,0.37-0.32
			c0.06-0.14,0.09-0.34,0.09-0.61v-5.49c0-0.38-0.08-0.64-0.24-0.8c-0.16-0.15-0.51-0.23-1.06-0.23v-0.59h4.43v0.59
			c-0.37,0-0.65,0.04-0.84,0.11s-0.31,0.18-0.37,0.32c-0.06,0.14-0.09,0.34-0.09,0.6v5.49c0,0.25,0.03,0.45,0.08,0.59
			c0.06,0.14,0.18,0.25,0.36,0.33c0.18,0.08,0.47,0.12,0.85,0.12L214.74,31.46L214.74,31.46z"/>
		<path class="st0" d="M217.95,31.42c0,0.42-0.09,0.81-0.27,1.17c-0.18,0.36-0.44,0.65-0.79,0.88c-0.35,0.23-0.77,0.38-1.25,0.45
			v-0.59c0.48-0.09,0.87-0.26,1.16-0.51c0.29-0.24,0.44-0.55,0.44-0.92c0-0.09-0.02-0.17-0.06-0.23c-0.04-0.06-0.09-0.09-0.17-0.09
			c-0.04,0-0.11,0.01-0.21,0.03c-0.08,0.03-0.18,0.04-0.31,0.04c-0.23,0-0.45-0.09-0.64-0.28c-0.2-0.19-0.3-0.42-0.3-0.7
			c0-0.31,0.1-0.56,0.31-0.74c0.21-0.18,0.45-0.28,0.73-0.28c0.2,0,0.41,0.07,0.62,0.2c0.21,0.13,0.39,0.33,0.53,0.6
			C217.88,30.72,217.95,31.04,217.95,31.42z"/>
		<path class="st0" d="M231.74,28.01c-0.25,0.03-0.44,0.07-0.56,0.12c-0.13,0.05-0.21,0.15-0.26,0.28
			c-0.05,0.13-0.07,0.33-0.07,0.61v2.05c-0.62,0-1.3,0.08-2.02,0.25c-0.52,0.12-0.92,0.2-1.18,0.24s-0.57,0.07-0.93,0.07
			c-0.94,0-1.76-0.22-2.43-0.66c-0.68-0.44-1.18-1.01-1.52-1.71c-0.34-0.7-0.51-1.41-0.51-2.15c0-0.84,0.2-1.61,0.6-2.3
			c0.4-0.69,0.94-1.24,1.62-1.64c0.68-0.4,1.43-0.6,2.24-0.6c0.99,0,1.89,0.34,2.7,1.02c0.1-0.18,0.18-0.44,0.24-0.76h0.62
			l0.06,2.86h-0.59c-0.09-0.43-0.26-0.83-0.51-1.19c-0.25-0.36-0.56-0.65-0.93-0.86s-0.78-0.31-1.23-0.31
			c-0.33,0-0.65,0.06-0.96,0.17c-0.31,0.11-0.61,0.31-0.88,0.59s-0.49,0.67-0.66,1.15c-0.17,0.49-0.25,1.08-0.25,1.8
			c0,0.61,0.06,1.2,0.19,1.76c0.13,0.56,0.39,1.05,0.79,1.45c0.4,0.4,0.95,0.61,1.68,0.61c0.57,0,1-0.09,1.29-0.27
			c0.29-0.18,0.48-0.4,0.57-0.65c0.09-0.26,0.13-0.55,0.13-0.86c0-0.3-0.02-0.52-0.07-0.66c-0.05-0.14-0.15-0.24-0.31-0.3
			c-0.17-0.06-0.42-0.1-0.76-0.1v-0.59h3.89L231.74,28.01L231.74,28.01z"/>
		<path class="st0" d="M241.35,23.31c-0.39,0-0.67,0.05-0.84,0.14c-0.17,0.09-0.27,0.22-0.31,0.39c-0.04,0.17-0.06,0.43-0.06,0.77
			v3.22c0,0.59-0.02,1.04-0.06,1.34c-0.04,0.3-0.15,0.6-0.33,0.91c-0.33,0.59-0.78,0.99-1.37,1.21c-0.59,0.22-1.15,0.33-1.69,0.33
			c-0.4,0-0.81-0.05-1.23-0.16c-0.42-0.11-0.82-0.28-1.18-0.52c-0.37-0.24-0.64-0.56-0.83-0.95c-0.1-0.21-0.18-0.43-0.24-0.65
			c-0.05-0.22-0.09-0.42-0.1-0.61c-0.01-0.19-0.02-0.44-0.02-0.75l-0.01-3.64c0-0.38-0.07-0.64-0.22-0.8
			c-0.15-0.15-0.5-0.23-1.04-0.23v-0.59h4.41v0.59c-0.37,0-0.65,0.04-0.84,0.11c-0.18,0.08-0.31,0.18-0.36,0.32
			c-0.06,0.14-0.08,0.34-0.08,0.6v3.64c0,0.37,0.02,0.7,0.05,0.98s0.09,0.53,0.17,0.74c0.15,0.35,0.39,0.63,0.74,0.84
			c0.35,0.21,0.74,0.31,1.16,0.31c0.45,0,0.87-0.11,1.26-0.33c0.39-0.22,0.66-0.51,0.81-0.86c0.12-0.28,0.2-0.56,0.24-0.85
			c0.04-0.29,0.05-0.64,0.05-1.05v-3.15c0-0.28-0.01-0.49-0.03-0.63c-0.02-0.14-0.06-0.26-0.14-0.36c-0.08-0.11-0.21-0.18-0.38-0.23
			c-0.18-0.05-0.42-0.07-0.74-0.07v-0.59h3.22L241.35,23.31L241.35,23.31z"/>
		<path class="st0" d="M251.2,31.46h-2.34c-0.09-0.09-0.19-0.23-0.32-0.41c-0.13-0.18-0.27-0.39-0.41-0.64
			c-0.15-0.24-0.28-0.44-0.37-0.6l-0.59-0.98c-0.27-0.44-0.47-0.74-0.6-0.9c-0.14-0.16-0.29-0.26-0.46-0.31
			c-0.17-0.05-0.47-0.07-0.89-0.07h-0.33v2.28c0,0.24,0.03,0.43,0.08,0.58c0.05,0.15,0.17,0.26,0.36,0.34s0.47,0.12,0.84,0.12v0.59
			h-4.38v-0.59c0.53,0,0.88-0.08,1.03-0.23c0.15-0.15,0.23-0.42,0.23-0.8v-5.52c0-0.37-0.07-0.64-0.22-0.8
			c-0.15-0.16-0.49-0.24-1.04-0.24v-0.61l2.02-0.06c0.15-0.01,0.33-0.02,0.53-0.02c0.2,0,0.38-0.01,0.56-0.01
			c0.13,0,0.35,0,0.66,0.01c0.43,0.01,0.84,0.04,1.22,0.08c0.38,0.04,0.68,0.09,0.9,0.15c0.32,0.08,0.63,0.22,0.92,0.41
			s0.53,0.44,0.71,0.75c0.18,0.31,0.27,0.67,0.27,1.08c0,0.29-0.06,0.58-0.19,0.85c-0.13,0.28-0.33,0.52-0.61,0.74
			s-0.65,0.38-1.11,0.51c0.31,0.18,0.58,0.41,0.8,0.69s0.56,0.78,1.03,1.5c0.27,0.42,0.49,0.73,0.67,0.94
			c0.18,0.21,0.34,0.36,0.49,0.43c0.15,0.08,0.34,0.12,0.56,0.15V31.46L251.2,31.46z M247.57,25.05c0-0.7-0.21-1.16-0.64-1.39
			c-0.42-0.23-0.98-0.34-1.66-0.34c-0.09,0-0.17,0-0.22,0c-0.05,0-0.12,0-0.18,0v3.51h0.41c0.65,0,1.19-0.11,1.63-0.31
			C247.35,26.32,247.57,25.82,247.57,25.05L247.57,25.05z"/>
		<path class="st0" d="M260.75,23.31c-0.39,0-0.67,0.05-0.84,0.14c-0.17,0.09-0.27,0.22-0.31,0.39c-0.04,0.17-0.06,0.43-0.06,0.77
			v3.22c0,0.59-0.02,1.04-0.06,1.34c-0.04,0.3-0.15,0.6-0.33,0.91c-0.33,0.59-0.78,0.99-1.37,1.21c-0.59,0.22-1.15,0.33-1.69,0.33
			c-0.4,0-0.81-0.05-1.23-0.16c-0.42-0.11-0.82-0.28-1.18-0.52c-0.37-0.24-0.64-0.56-0.83-0.95c-0.1-0.21-0.18-0.43-0.24-0.65
			c-0.05-0.22-0.09-0.42-0.1-0.61c-0.01-0.19-0.02-0.44-0.02-0.75l-0.01-3.64c0-0.38-0.07-0.64-0.22-0.8
			c-0.15-0.15-0.5-0.23-1.04-0.23v-0.59h4.41v0.59c-0.37,0-0.65,0.04-0.84,0.11c-0.18,0.08-0.31,0.18-0.36,0.32
			c-0.06,0.14-0.08,0.34-0.08,0.6v3.64c0,0.37,0.02,0.7,0.05,0.98s0.09,0.53,0.17,0.74c0.15,0.35,0.39,0.63,0.74,0.84
			c0.35,0.21,0.74,0.31,1.16,0.31c0.45,0,0.87-0.11,1.26-0.33c0.39-0.22,0.66-0.51,0.81-0.86c0.12-0.28,0.2-0.56,0.24-0.85
			c0.04-0.29,0.05-0.64,0.05-1.05v-3.15c0-0.28-0.01-0.49-0.03-0.63c-0.02-0.14-0.06-0.26-0.14-0.36c-0.08-0.11-0.21-0.18-0.38-0.23
			c-0.18-0.05-0.42-0.07-0.74-0.07v-0.59h3.22L260.75,23.31L260.75,23.31z"/>
		<path class="st0" d="M270.96,28.01c-0.25,0.03-0.44,0.07-0.56,0.12c-0.13,0.05-0.21,0.15-0.26,0.28
			c-0.05,0.13-0.07,0.33-0.07,0.61v2.05c-0.62,0-1.3,0.08-2.02,0.25c-0.52,0.12-0.92,0.2-1.18,0.24s-0.57,0.07-0.93,0.07
			c-0.94,0-1.76-0.22-2.43-0.66c-0.68-0.44-1.18-1.01-1.52-1.71s-0.51-1.41-0.51-2.15c0-0.84,0.2-1.61,0.6-2.3
			c0.4-0.69,0.94-1.24,1.62-1.64c0.68-0.4,1.43-0.6,2.24-0.6c0.99,0,1.89,0.34,2.7,1.02c0.1-0.18,0.18-0.44,0.24-0.76h0.62
			l0.06,2.86h-0.59c-0.09-0.43-0.26-0.83-0.51-1.19s-0.56-0.65-0.93-0.86c-0.37-0.21-0.78-0.31-1.23-0.31
			c-0.33,0-0.65,0.06-0.96,0.17c-0.31,0.11-0.61,0.31-0.88,0.59s-0.49,0.67-0.66,1.15c-0.17,0.49-0.25,1.08-0.25,1.8
			c0,0.61,0.06,1.2,0.19,1.76c0.13,0.56,0.39,1.05,0.79,1.45c0.4,0.4,0.95,0.61,1.68,0.61c0.57,0,1-0.09,1.29-0.27
			c0.29-0.18,0.48-0.4,0.57-0.65c0.09-0.26,0.13-0.55,0.13-0.86c0-0.3-0.02-0.52-0.07-0.66c-0.05-0.14-0.15-0.24-0.31-0.3
			c-0.17-0.06-0.42-0.1-0.76-0.1v-0.59h3.89L270.96,28.01L270.96,28.01z"/>
		<path class="st0" d="M280.65,31.46h-2.34c-0.09-0.09-0.19-0.23-0.32-0.41c-0.13-0.18-0.27-0.39-0.41-0.64
			c-0.15-0.24-0.28-0.44-0.37-0.6l-0.59-0.98c-0.27-0.44-0.47-0.74-0.6-0.9c-0.14-0.16-0.29-0.26-0.46-0.31
			c-0.17-0.05-0.47-0.07-0.89-0.07h-0.33v2.28c0,0.24,0.03,0.43,0.08,0.58c0.05,0.15,0.17,0.26,0.36,0.34
			c0.19,0.08,0.47,0.12,0.84,0.12v0.59h-4.38v-0.59c0.53,0,0.88-0.08,1.03-0.23c0.15-0.15,0.23-0.42,0.23-0.8v-5.52
			c0-0.37-0.07-0.64-0.22-0.8c-0.15-0.16-0.49-0.24-1.04-0.24v-0.61l2.02-0.06c0.15-0.01,0.33-0.02,0.53-0.02s0.38-0.01,0.56-0.01
			c0.13,0,0.35,0,0.66,0.01c0.43,0.01,0.84,0.04,1.22,0.08c0.38,0.04,0.68,0.09,0.9,0.15c0.32,0.08,0.63,0.22,0.92,0.41
			s0.53,0.44,0.71,0.75c0.18,0.31,0.27,0.67,0.27,1.08c0,0.29-0.06,0.58-0.19,0.85c-0.13,0.28-0.33,0.52-0.61,0.74
			s-0.65,0.38-1.11,0.51c0.31,0.18,0.58,0.41,0.8,0.69c0.22,0.27,0.56,0.78,1.03,1.5c0.27,0.42,0.49,0.73,0.67,0.94
			c0.18,0.21,0.34,0.36,0.49,0.43c0.15,0.08,0.34,0.12,0.56,0.15V31.46L280.65,31.46z M277.03,25.05c0-0.7-0.21-1.16-0.64-1.39
			c-0.42-0.23-0.98-0.34-1.66-0.34c-0.09,0-0.17,0-0.22,0c-0.05,0-0.12,0-0.18,0v3.51h0.41c0.65,0,1.19-0.11,1.63-0.31
			S277.02,25.82,277.03,25.05L277.03,25.05z"/>
		<path class="st0" d="M290.01,31.46h-4.12v-0.59c0.35,0,0.6-0.02,0.76-0.07c0.16-0.05,0.24-0.17,0.24-0.35
			c0-0.13-0.03-0.26-0.08-0.39l-0.41-1.03h-2.84l-0.21,0.57c-0.12,0.32-0.18,0.55-0.18,0.69c0,0.26,0.1,0.42,0.3,0.49
			c0.2,0.07,0.43,0.1,0.7,0.1v0.59h-3.01v-0.59c0.24,0,0.45-0.05,0.61-0.14c0.17-0.09,0.33-0.26,0.48-0.51
			c0.15-0.25,0.32-0.61,0.49-1.07l2.52-6.6h0.61l2.66,6.81c0.19,0.48,0.34,0.81,0.42,0.98c0.09,0.17,0.21,0.3,0.37,0.39
			c0.16,0.09,0.38,0.14,0.67,0.14L290.01,31.46L290.01,31.46z M286.17,28.39l-1.21-3.05l-1.15,3.05H286.17z"/>
		<path class="st0" d="M302.47,31.46h-4.38v-0.59c0.38,0,0.65-0.04,0.83-0.11c0.18-0.08,0.29-0.18,0.35-0.33
			c0.05-0.14,0.08-0.34,0.08-0.59v-5.48l-3.3,7.1h-0.39l-3.35-7.1v5.2c0,0.28,0.01,0.48,0.03,0.63c0.02,0.15,0.07,0.27,0.15,0.37
			c0.08,0.1,0.21,0.18,0.38,0.23c0.17,0.05,0.41,0.07,0.71,0.07v0.59h-3.24v-0.59c0.31,0,0.55-0.03,0.72-0.08
			c0.17-0.05,0.29-0.13,0.37-0.23c0.08-0.1,0.12-0.23,0.14-0.37c0.02-0.14,0.03-0.35,0.03-0.63v-4.95c0-0.37-0.02-0.64-0.06-0.8
			c-0.04-0.16-0.15-0.29-0.32-0.37c-0.17-0.08-0.47-0.13-0.88-0.13v-0.59h3.2l2.9,6.17l2.91-6.17h3.13v0.59
			c-0.54,0-0.88,0.08-1.04,0.24c-0.16,0.16-0.24,0.42-0.24,0.8v5.49c0,0.24,0.03,0.43,0.08,0.57c0.05,0.15,0.17,0.26,0.36,0.34
			c0.19,0.08,0.47,0.12,0.84,0.12L302.47,31.46L302.47,31.46z"/>
	</g>
	<line class="st1" x1="40.3" y1="18.21" x2="291.46" y2="18.21"/>
</g>
</svg>
