<svg id="Group_4634" data-name="Group 4634" xmlns="http://www.w3.org/2000/svg" xmlns:xlink="http://www.w3.org/1999/xlink" width="47.047" height="47.024" viewBox="0 0 47.047 47.024">
  <defs>
    <clipPath id="clip-path">
      <rect id="Rectangle_1833" data-name="Rectangle 1833" width="47.047" height="47.024" fill="#cfd5dd"/>
    </clipPath>
  </defs>
  <g id="Group_4570" data-name="Group 4570" clip-path="url(#clip-path)">
    <path id="Path_3325" data-name="Path 3325" d="M25.889,29.015c0-2.5.005-4.917-.012-7.332a.833.833,0,0,0-.279-.475c-1.263-1.277-2.535-2.544-3.8-3.814-.114-.114-.221-.234-.348-.369l1.108-1.074,3.313,3.32V3.176h1.565V5.8l.106.072,1.6-1.835,1.222,1.281c-.371.355-.76.719-1.138,1.092-.512.5-1.026,1.006-1.519,1.528a.821.821,0,0,0-.236.494c-.015,2.22-.01,4.44-.008,6.66a1.45,1.45,0,0,0,.053.224l2.5-2.575,1.2,1.3a3.579,3.579,0,0,0-.608.4q-1.453,1.421-2.874,2.875a.817.817,0,0,0-.254.485c-.018,1.876-.011,3.753-.011,5.684h1.535v1.575h-1.5V29H28.7c1.322,0,2.645,0,3.967,0a2.377,2.377,0,0,1,2.241,1.3c.758,1.367,1.554,2.716,2.268,4.106A2.7,2.7,0,0,0,40,36.051c.211-.017.424-.006.636-.012a.6.6,0,0,0,.137-.055V35.53q0-8.521.006-17.043a.917.917,0,0,0-.33-.753,3.724,3.724,0,0,1-1.24-2.824q-.014-5.51,0-11.019a3.913,3.913,0,0,1,7.826-.024q.019,5.509,0,11.019A3.982,3.982,0,0,1,45.763,17.8a.966.966,0,0,0-.275.614c-.015,5.779-.009,11.558-.018,17.337a.573.573,0,0,0,.352.6,2.284,2.284,0,0,1,1.144,2.612,2.331,2.331,0,0,1-2.286,1.782c-.587.006-1.174,0-1.843,0,.376.759.71,1.476,1.082,2.172a3.027,3.027,0,0,1,.438,2.2,2.474,2.474,0,0,1-4.727.291c-.513-1.319-1-2.647-1.49-3.976a.91.91,0,0,0-.942-.687q-6.122.01-12.243,0c-.065,0-.129.01-.266.021.217.6.424,1.166.633,1.736.151.412.332.816.454,1.237a2.537,2.537,0,1,1-4.869,1.431c-.362-1.284-.66-2.585-.986-3.878-.016-.063-.006-.141-.04-.19-.085-.121-.189-.23-.285-.343a1.242,1.242,0,0,0-.235.339c-.217.817-.415,1.64-.621,2.461-.126.505-.251,1.01-.381,1.514a2.358,2.358,0,1,1-4.588-1.064c.227-1.133.457-2.265.664-3.4a6.764,6.764,0,0,0-.6-4.187,21.107,21.107,0,0,0-1.266-2.329V34.6q0,4.922,0,9.844a2.365,2.365,0,0,1-2.546,2.572q-3.722,0-7.444,0A2.355,2.355,0,0,1,.031,44.491q0-6.905,0-13.811a2.346,2.346,0,0,1,2.453-2.467q2.792,0,5.583,0h.555V25.239C4.132,25.213,1.114,23.232.146,18.7a7.1,7.1,0,0,1,1.1-5.375A7.813,7.813,0,0,1,5.7,10c-.383-.37-.709-.658-1-.975A5.018,5.018,0,0,1,3.547,3.434,4.953,4.953,0,0,1,8.21.138a13.069,13.069,0,0,1,3.5.174,5.168,5.168,0,0,1,2.521,8.648c-.316.328-.664.626-1.088,1.024a8.041,8.041,0,0,1,4.872,4.039,8,8,0,0,1,4.962-4.155c-.408-.372-.748-.652-1.053-.966a5.124,5.124,0,0,1-1.091-5.74A5.037,5.037,0,0,1,25.7.014a13.769,13.769,0,0,1,3.258.174A5.17,5.17,0,0,1,31.5,8.812c-.32.346-.691.645-1.12,1.041a8.924,8.924,0,0,1,3.171,1.784,7.724,7.724,0,0,1,2.013,2.972l-1.362.524c-.406-.614-.75-1.225-1.18-1.767a6.241,6.241,0,0,0-2.936-1.944,1.534,1.534,0,0,1-1.15-1.92,2.142,2.142,0,0,1,.46-.786c.317-.371.7-.683,1.023-1.053A3.479,3.479,0,0,0,31.069,3.8a3.452,3.452,0,0,0-3.24-2.213,15.223,15.223,0,0,0-2.974.1,3.313,3.313,0,0,0-2.7,2.415,3.481,3.481,0,0,0,.753,3.551c.319.37.691.693,1.03,1.047a1.556,1.556,0,0,1-.584,2.675A6.682,6.682,0,0,0,19.8,14.06a6.224,6.224,0,0,0-.969,3.333A7.684,7.684,0,0,1,12.7,25.019a20.539,20.539,0,0,1-2.453.238v2.929a2.512,2.512,0,0,1,2.16,1.5,2.9,2.9,0,0,1,2.352-.7c.813.025,1.628.005,2.475.005v1.562h-.983l1.6,2.877c.269.484.524.977.812,1.45a2.239,2.239,0,0,0,1.979,1.156q7.713.019,15.427.006c.059,0,.119-.012.23-.024-.518-.933-1.012-1.825-1.507-2.716-.38-.683-.784-1.355-1.135-2.053a1.18,1.18,0,0,0-1.21-.7c-3.036.022-6.073.01-9.109.01h-.553V29.015Zm-15.674-5.4c.4,0,.73.006,1.055,0a6.143,6.143,0,0,0,5.364-8.849,6.354,6.354,0,0,0-3.809-3.229A1.575,1.575,0,0,1,12.2,8.782c.34-.352.709-.68,1.024-1.052A3.465,3.465,0,0,0,13.9,4.077a3.372,3.372,0,0,0-2.844-2.312,17.975,17.975,0,0,0-2.588-.077A3.526,3.526,0,0,0,5.035,3.923a3.5,3.5,0,0,0,.785,4.01c.335.357.707.681,1.023,1.053a1.55,1.55,0,0,1-.555,2.454c-.266.122-.549.2-.818.32a5.967,5.967,0,0,0-3.832,5.134A5.885,5.885,0,0,0,4.078,22.4,6.187,6.187,0,0,0,8.65,23.583c0-.541.031-1.048-.013-1.548a1.248,1.248,0,0,0-.291-.713c-.972-1.012-1.973-2-2.968-2.987-.39-.389-.788-.77-1.18-1.153l1.156-1.17,3.3,3.332V3.274h1.569V5.945l.153.088,1.5-1.656,1.241,1.029c-.892.886-1.761,1.725-2.6,2.6a1.144,1.144,0,0,0-.292.711c-.023,2.073-.013,4.146-.012,6.219,0,.138.015.276.023.413l.115.071,2.324-2.392,1.2,1.024c-.683.674-1.348,1.324-2.005,1.982-.553.553-1.308,1.028-1.585,1.7a6.523,6.523,0,0,0-.075,2.325c0,1.171,0,2.343,0,3.563m-8.62,14q0,3.425,0,6.85c0,.7.279.983.972.984q3.719.005,7.438,0c.721,0,.994-.279.994-1.013q0-6.826,0-13.652c0-.731-.273-1.007-1-1.007q-3.694,0-7.389,0c-.755,0-1.017.268-1.018,1.037q0,3.4,0,6.8M45.479,9.407q0-2.668,0-5.336a2.356,2.356,0,1,0-4.7,0q0,5.336,0,10.673a2.356,2.356,0,1,0,4.7,0q0-2.668,0-5.337m-20.7,29.775h.783c.741,0,1.119-.273,1.11-.8s-.372-.771-1.086-.771c-1.616,0-3.232.009-4.847,0a3.827,3.827,0,0,1-3.467-2c-.446-.758-.858-1.535-1.286-2.3s-.843-1.584-1.327-2.335A1,1,0,0,0,13.9,30.6a.592.592,0,0,0-.541.695,3.41,3.41,0,0,0,.221,1.076c.386.861.8,1.714,1.26,2.535a9.459,9.459,0,0,1,.908,7.272c-.2.786-.323,1.594-.459,2.4a.629.629,0,0,0,.445.774,1.159,1.159,0,0,0,.8-.122,1.068,1.068,0,0,0,.331-.621c.347-1.338.663-2.684,1.009-4.022a1.778,1.778,0,0,1,1.723-1.4,1.8,1.8,0,0,1,1.774,1.4c.078.282.139.569.21.853.263,1.057.522,2.116.792,3.172a1,1,0,0,0,.951.838.931.931,0,0,0,.942-.7,1.6,1.6,0,0,0-.078-.8c-.409-1.149-.858-2.284-1.275-3.431-.288-.791.094-1.321.935-1.329.31,0,.62,0,.93,0m3.418,0h.535q4.211,0,8.422,0A2.38,2.38,0,0,1,39.6,40.89c.48,1.262.95,2.528,1.43,3.789.255.669.746.926,1.275.682s.681-.765.366-1.4c-.409-.832-.842-1.653-1.233-2.494A1.552,1.552,0,0,1,42.9,39.184c.587-.006,1.175.01,1.762-.006a.777.777,0,0,0,.814-.795.791.791,0,0,0-.794-.768c-.114-.008-.228,0-.343,0H28.194Zm14.183-3.174h1.511V18.779H42.376Z" transform="translate(0 0)" fill="#cfd5dd"/>
    <path id="Path_3326" data-name="Path 3326" d="M157.49,94.945h-1.557c.081-2.707-1.141-4.352-3.914-4.728V88.726a4.1,4.1,0,0,0,3-1.464,4.36,4.36,0,0,0,.882-3.233h1.56a4.529,4.529,0,0,0,.895,3.223,4.043,4.043,0,0,0,3.007,1.463v1.532a4.045,4.045,0,0,0-2.983,1.439,4.331,4.331,0,0,0-.894,3.261m.607-5.459-1.38-1.416-1.425,1.4,1.394,1.447,1.41-1.432" transform="translate(-122.189 -67.54)" fill="#cfd5dd"/>
    <path id="Path_3327" data-name="Path 3327" d="M89.521,108.714v1.521a4.086,4.086,0,0,0-3.008,1.465,4.34,4.34,0,0,0-.878,3.233H84.083c.079-2.675-1.125-4.335-3.912-4.718v-1.5a4.059,4.059,0,0,0,2.984-1.443,4.327,4.327,0,0,0,.895-3.241h1.576a4.39,4.39,0,0,0,.9,3.238,4.065,4.065,0,0,0,3,1.445m-6.081.752,1.376,1.407,1.435-1.366-1.4-1.457-1.406,1.416" transform="translate(-64.439 -83.617)" fill="#cfd5dd"/>
    <path id="Path_3328" data-name="Path 3328" d="M19.268,159.745c.261,0,.522,0,.783,0a2.349,2.349,0,1,1-.007,4.7q-.783.009-1.567,0a2.349,2.349,0,1,1,.007-4.7c.261,0,.522,0,.783,0m-.029,3.133c.26,0,.52.011.779,0a.786.786,0,0,0,.812-.793.774.774,0,0,0-.785-.767c-.519-.019-1.04-.019-1.559,0a.78.78,0,1,0,.022,1.56c.243.013.487,0,.731,0" transform="translate(-12.966 -128.398)" fill="#cfd5dd"/>
  </g>
</svg>
