<svg id="Group_4633" data-name="Group 4633" xmlns="http://www.w3.org/2000/svg" xmlns:xlink="http://www.w3.org/1999/xlink" width="47.047" height="59.284" viewBox="0 0 47.047 59.284">
  <defs>
    <clipPath id="clip-path">
      <rect id="Rectangle_1834" data-name="Rectangle 1834" width="47.047" height="59.284" fill="#cfd5dd"/>
    </clipPath>
  </defs>
  <g id="Group_4572" data-name="Group 4572" clip-path="url(#clip-path)">
    <path id="Path_3329" data-name="Path 3329" d="M13.846,71.9v7.489a50.2,50.2,0,0,1,17.2-.353V71.76a9.752,9.752,0,0,1-7.925.453l.612-1.561c1.246.089,2.385.236,3.523.234A6.63,6.63,0,0,0,30.575,69.8a1.093,1.093,0,0,0,.538-.95,1.914,1.914,0,0,0-1.175-2.186,28.914,28.914,0,0,1-2.7-1.727c-.6-.4-.754-.951-.416-1.44a1,1,0,0,1,1.451-.157c.9.567,1.785,1.148,2.818,1.814,0-.945,0-1.737,0-2.529,0-1.332,0-2.665.006-4,.006-.727.326-1.1.91-1.115.612-.012.946.376.952,1.139.009,1.089,0,2.178,0,3.384.306-.1.525-.156.735-.239.79-.314,1.569-.654,2.366-.949a.956.956,0,0,1,1.27.488.943.943,0,0,1-.587,1.272c-1.083.459-2.174.9-3.273,1.32a.7.7,0,0,0-.519.776c.023,1.4-.017,2.8.031,4.193a1.187,1.187,0,0,0,.462.824A7.557,7.557,0,1,0,40.413,56.38a1.175,1.175,0,0,1-.787-.974,8.038,8.038,0,0,0-6.542-6.49,6.954,6.954,0,0,0-5.053,1.127c-.146.093-.291.192-.437.286a.562.562,0,0,1-.1.033L26.347,48.91a8.824,8.824,0,0,1,6.588-1.929c4.348.554,6.97,3.175,8.379,7.2a1.561,1.561,0,0,0,.654.794,9.493,9.493,0,0,1-3.256,17.816,9.245,9.245,0,0,1-4.871-.678c-.239-.1-.48-.2-.721-.3-.015-.006-.039.012-.113.037-.014.162-.043.348-.043.534,0,2.119.012,4.237-.009,6.356,0,.5.126.7.653.823a26.628,26.628,0,0,1,9.835,4.083c.122.087.234.188.395.317l-1.149,1.48a23.173,23.173,0,0,0-7.693-3.574A43.688,43.688,0,0,0,21,80.43a35.816,35.816,0,0,0-13.2,2.881c-1.285.579-2.49,1.333-3.815,2.053L2.889,83.988a16.717,16.717,0,0,1,4.2-2.46c1.409-.573,2.86-1.047,4.307-1.523.375-.123.519-.268.516-.67q-.026-3.473,0-6.946c0-.434-.12-.583-.576-.639A12.52,12.52,0,0,1,.39,62.43,16.279,16.279,0,0,1,.457,55.1,47.49,47.49,0,0,1,4.969,41.984,16.109,16.109,0,0,1,8.7,37.138a6.115,6.115,0,0,1,8.347-.053,16.922,16.922,0,0,1,4.441,6.244,45.7,45.7,0,0,1,4.169,14.848c.761,8.076-4.311,12.956-11.1,13.613-.235.023-.467.072-.717.111m-2-17.786c.028-.287.058-.45.058-.614,0-1.638-.007-3.276.008-4.914.007-.753.368-1.161.961-1.159s.934.422.937,1.164c0,1.048,0,2.1,0,3.145v2.414c.319-.25.505-.388.684-.535.725-.6,1.428-1.222,2.183-1.778a1.262,1.262,0,0,1,.937-.248,1.02,1.02,0,0,1,.638.7,1.376,1.376,0,0,1-.4,1c-1.193,1.055-2.451,2.037-3.657,3.078a1.159,1.159,0,0,0-.364.762c-.033,1.55-.017,3.1-.012,4.651a2.276,2.276,0,0,0,.088.408c.551-.449,1.041-.846,1.527-1.246,1.281-1.055,2.556-2.117,3.842-3.165.675-.55,1.46-.377,1.678.358.158.532-.156.865-.524,1.168-1.855,1.525-3.68,3.089-5.579,4.557A2.348,2.348,0,0,0,13.787,66.1c.091,1.254.022,2.519.022,3.886.713-.1,1.334-.17,1.946-.29a9.578,9.578,0,0,0,8.051-9.444,22.662,22.662,0,0,0-.674-5.831,44.994,44.994,0,0,0-4.079-11.685,12.99,12.99,0,0,0-3.318-4.256,4.17,4.17,0,0,0-5.723.057,14.091,14.091,0,0,0-3.406,4.438A45.13,45.13,0,0,0,2.391,55.157a15.207,15.207,0,0,0-.316,6.035C2.9,65.5,5.547,68.154,9.654,69.445c.694.218,1.424.324,2.251.506v-.842c0-1.223-.025-2.446.012-3.669a1.3,1.3,0,0,0-.552-1.16c-2.018-1.636-4.016-3.3-6.02-4.95-.631-.521-.771-1.1-.383-1.56.406-.477.926-.452,1.6.1,1.167.952,2.326,1.914,3.49,2.87.565.464,1.133.923,1.849,1.506,0-1.088.006-1.993,0-2.9a6.673,6.673,0,0,0-.12-2.645c-.366-.754-1.314-1.229-2.012-1.819s-1.39-1.13-2.057-1.726a.867.867,0,0,1-.1-1.289A.876.876,0,0,1,8.893,51.7c.18.122.343.269.512.407.786.644,1.571,1.29,2.439,2" transform="translate(0 -26.155)" fill="#cfd5dd"/>
    <path id="Path_3330" data-name="Path 3330" d="M125.259,27.292a4.271,4.271,0,0,1-4.31-4.31,4.324,4.324,0,1,1,4.31,4.31m-.022-6.732a2.438,2.438,0,0,0-2.414,2.408,2.5,2.5,0,0,0,2.466,2.45,2.434,2.434,0,0,0,2.388-2.436,2.381,2.381,0,0,0-2.44-2.423" transform="translate(-89.197 -13.742)" fill="#cfd5dd"/>
    <path id="Path_3331" data-name="Path 3331" d="M146.7.872a23.9,23.9,0,0,1-1.2,2.492c-.126.2-.712.26-1.033.176a.776.776,0,0,1-.5-1.057,16.274,16.274,0,0,1,.856-2.034A.788.788,0,0,1,145.883.08c.306.139.516.49.812.791" transform="translate(-106.129 0)" fill="#cfd5dd"/>
    <path id="Path_3332" data-name="Path 3332" d="M106.044,20.106c-.027.812-.632,1.26-1.269,1.053a15.3,15.3,0,0,1-1.869-.777.882.882,0,0,1-.439-1.223.867.867,0,0,1,1.192-.5,12.179,12.179,0,0,1,1.8.768c.285.16.455.523.584.68" transform="translate(-75.499 -13.704)" fill="#cfd5dd"/>
    <path id="Path_3333" data-name="Path 3333" d="M159.462,21.143c-.256-.277-.678-.531-.729-.846a1.222,1.222,0,0,1,.436-1.018,8.716,8.716,0,0,1,1.907-.809.889.889,0,0,1,1.182.528.922.922,0,0,1-.542,1.235c-.691.306-1.4.568-2.254.91" transform="translate(-117.056 -13.575)" fill="#cfd5dd"/>
    <path id="Path_3334" data-name="Path 3334" d="M122.092,59.949c-.853-.028-1.28-.644-1.049-1.311a16.9,16.9,0,0,1,.755-1.8.926.926,0,0,1,1.262-.458.892.892,0,0,1,.467,1.2,12.107,12.107,0,0,1-.764,1.79c-.158.281-.52.448-.672.57" transform="translate(-89.221 -41.509)" fill="#cfd5dd"/>
    <path id="Path_3335" data-name="Path 3335" d="M146.972,59.216c-.284.294-.492.648-.8.793a.782.782,0,0,1-1.072-.349,17.368,17.368,0,0,1-.853-2.1.745.745,0,0,1,.5-1c.322-.085.911-.041,1.034.16a23.974,23.974,0,0,1,1.193,2.5" transform="translate(-106.346 -41.682)" fill="#cfd5dd"/>
    <path id="Path_3336" data-name="Path 3336" d="M123.593,3.145c-.295.306-.5.658-.807.8a.778.778,0,0,1-1.061-.374,10.356,10.356,0,0,1-.837-2.106,1.168,1.168,0,0,1,.5-.971,1.051,1.051,0,0,1,1.016.156,23.845,23.845,0,0,1,1.184,2.491" transform="translate(-89.145 -0.317)" fill="#cfd5dd"/>
    <path id="Path_3337" data-name="Path 3337" d="M162.207,43.039c.012.883-.555,1.323-1.245,1.1a12.252,12.252,0,0,1-1.91-.811.836.836,0,0,1-.387-1.168.857.857,0,0,1,1.112-.54,13.006,13.006,0,0,1,1.966.842c.245.13.379.469.464.581" transform="translate(-116.938 -30.651)" fill="#cfd5dd"/>
    <path id="Path_3338" data-name="Path 3338" d="M106.116,43.107a2.28,2.28,0,0,1-.589.639,16.01,16.01,0,0,1-1.8.748.939.939,0,0,1-.761-1.713,14.666,14.666,0,0,1,1.86-.767c.675-.219,1.286.228,1.287,1.093" transform="translate(-75.552 -30.944)" fill="#cfd5dd"/>
  </g>
</svg>
