<svg id="Group_4635" data-name="Group 4635" xmlns="http://www.w3.org/2000/svg" xmlns:xlink="http://www.w3.org/1999/xlink" width="47.047" height="46.282" viewBox="0 0 47.047 46.282">
  <defs>
    <clipPath id="clip-path">
      <rect id="Rectangle_1849" data-name="Rectangle 1849" width="47.047" height="46.282" fill="#cfd5dd"/>
    </clipPath>
  </defs>
  <g id="Group_4574" data-name="Group 4574" clip-path="url(#clip-path)">
    <path id="Path_3339" data-name="Path 3339" d="M47.047,183.312H0v-1.543H1.54v-.621q0-12.477,0-24.954c0-.915.2-1.119,1.119-1.12H3.883v-3.112h1.56v3.082H7.021v-1.5h1.56v1.534h5.259c.805,0,1.035.235,1.035,1.057,0,.93,0,1.86,0,2.826H13.328v-2.278H3.139v2.3h6.988v1.576h-7v1.561H9.352v1.559H3.14v1.579H6.989v1.577H3.131v1.561H7.782v1.576H3.14v1.561H6.989V173.1H3.131v1.561H7v1.577H3.14V177.8H7.773v1.576H3.131v2.329h7.04V166.488c0-1.05.153-1.2,1.218-1.217.1,0,.192-.009.351-.016,0-.235,0-.457,0-.68A2.271,2.271,0,0,1,13,162.413a.533.533,0,0,0,.319-.575c-.017-.4,0-.811,0-1.244h1.566c0,.437-.014.887.008,1.336a.53.53,0,0,0,.181.392,2.462,2.462,0,0,1,1.38,2.542c-.007.112,0,.225,0,.408h1.719q.981,0,1.961,0c.783,0,1.027.241,1.027,1.016q0,7.4,0,14.806v.617h3.9V169.973c-.275,0-.533.012-.789,0a.732.732,0,0,1-.745-.749c-.015-1.062-.013-2.124,0-3.186a.714.714,0,0,1,.686-.757c2.027-.237,4.055-.46,6.082-.687q3.333-.373,6.667-.744c.47-.052.941-.118,1.413-.136a.741.741,0,0,1,.832.807q.014,2.3,0,4.608a.766.766,0,0,1-.85.847c-.212.005-.424,0-.676,0v11.735h6.211V179.4H40.023V177.84h3.849v-1.578H40.014V174.7h3.867v-1.578H40.023v-1.559h3.849v-1.578H40.8v-1.559h3.082v-1.578H40.808V165.29h3.064v-1.578H40.8v-1.559h3.082v-1.578h-7v-1.559h6.987v-2.342H34.511v6.2H32.948c-.007-.149-.021-.306-.021-.463q0-3.162,0-6.324c0-.775.243-1.013,1.028-1.014H39.2v-1.546h1.56v1.519h1.561v-1.51H43.9v1.537c.257,0,.478,0,.7,0a.779.779,0,0,1,.881.867c0,.131,0,.261,0,.392v25.409h1.571ZM26.68,181.7h9.358V170H26.68Zm-14.909,0h7.79V166.859h-7.79Zm25.836-13.32v-3.013l-12.507,1.4v1.616Zm-24.266-3.154h1.519c.055-1.084-.206-1.563-.808-1.527s-.817.522-.711,1.527" transform="translate(0 -137.03)" fill="#cfd5dd"/>
    <path id="Path_3340" data-name="Path 3340" d="M111.645,0a1.1,1.1,0,0,1,.5,1.084c-.031.665-.008,1.333-.008,2.056.228,0,.418,0,.608,0,.706.005.959.262.961.983,0,.7,0,1.4,0,2.156.292,0,.548-.009.8,0a.694.694,0,0,1,.752.686c.02,2.887.011,5.775.011,8.692h-1.537V7.877h-8.652v8.569h-1.573V7.5c0-1.057.155-1.214,1.209-1.225.1,0,.194,0,.361,0,0-.683,0-1.346,0-2.009,0-.923.2-1.124,1.109-1.128h.46c0-.7.023-1.379-.008-2.057a1.1,1.1,0,0,1,.5-1.083Zm.47,4.74h-5.434V6.251h5.434ZM110.546,1.6h-2.3v1.51h2.3Z" transform="translate(-93.335)" fill="#cfd5dd"/>
    <path id="Path_3341" data-name="Path 3341" d="M263.068,0c0,.441.015.883-.008,1.323a.412.412,0,0,0,.354.482c.483.147.952.335,1.426.51a.821.821,0,0,1,.583.86c-.01,1.339,0,2.677,0,4.041.592.215,1.17.425,1.749.634a.819.819,0,0,1,.607.842q-.008,3.774,0,7.548a1.8,1.8,0,0,1-.026.207h-1.538v-.519q0-3.161,0-6.323c0-.233.011-.418-.292-.525-2.967-1.046-5.926-2.112-8.888-3.17a1.334,1.334,0,0,0-.234-.031v8.21h-1.572v-.453q0-4.338,0-8.675c0-.907.436-1.22,1.283-.921s1.713.61,2.64.941c0-1.2,0-2.336,0-3.472,0-.554.339-.929.808-.9a1.982,1.982,0,0,1,.47.126c.324.107.646.221.97.33.013,0,.031-.008.1-.028V0Zm.785,6.659c0-.985,0-1.91-.006-2.835a.283.283,0,0,0-.134-.218c-.983-.363-1.97-.713-2.983-1.076V5.549l3.123,1.11" transform="translate(-230.144)" fill="#cfd5dd"/>
    <path id="Path_3342" data-name="Path 3342" d="M195.122,162.767h-1.544v-1.549h-5.488v-1.557h5.436v-1.577h-3.072v-1.558h3.062v-2.851c-.956.29-1.914.577-2.87.871-1.743.536-3.482,1.088-5.231,1.6-.373.11-.51.249-.505.66.026,2.058.012,4.116.012,6.175v.551h-1.537c-.009-.137-.027-.277-.027-.418q0-3.6,0-7.2c0-.638.132-.817.762-1.012Q189,153.4,193.881,151.9c.824-.253,1.24.047,1.24.887q0,4.778,0,9.556Z" transform="translate(-165.338 -136.893)" fill="#cfd5dd"/>
    <rect id="Rectangle_1835" data-name="Rectangle 1835" width="1.504" height="1.513" transform="translate(14.129 9.446)" fill="#cfd5dd"/>
    <rect id="Rectangle_1836" data-name="Rectangle 1836" width="1.522" height="1.501" transform="translate(28.241 9.452)" fill="#cfd5dd"/>
    <rect id="Rectangle_1837" data-name="Rectangle 1837" width="1.506" height="1.504" transform="translate(32.951 11.022)" fill="#cfd5dd"/>
    <rect id="Rectangle_1838" data-name="Rectangle 1838" width="1.499" height="1.508" transform="translate(17.27 12.586)" fill="#cfd5dd"/>
    <rect id="Rectangle_1839" data-name="Rectangle 1839" width="1.508" height="1.499" transform="translate(13.343 14.935)" fill="#cfd5dd"/>
    <rect id="Rectangle_1840" data-name="Rectangle 1840" width="1.505" height="1.503" transform="translate(31.396 14.942)" fill="#cfd5dd"/>
    <rect id="Rectangle_1841" data-name="Rectangle 1841" width="1.505" height="1.514" transform="translate(29.037 34.547)" fill="#cfd5dd"/>
    <rect id="Rectangle_1842" data-name="Rectangle 1842" width="1.496" height="1.522" transform="translate(32.18 34.535)" fill="#cfd5dd"/>
    <rect id="Rectangle_1843" data-name="Rectangle 1843" width="1.502" height="1.51" transform="translate(29.03 37.678)" fill="#cfd5dd"/>
    <rect id="Rectangle_1844" data-name="Rectangle 1844" width="1.519" height="1.51" transform="translate(32.169 37.678)" fill="#cfd5dd"/>
    <rect id="Rectangle_1845" data-name="Rectangle 1845" width="1.519" height="1.51" transform="translate(29.03 40.816)" fill="#cfd5dd"/>
    <rect id="Rectangle_1846" data-name="Rectangle 1846" width="1.522" height="1.496" transform="translate(32.158 40.823)" fill="#cfd5dd"/>
    <rect id="Rectangle_1847" data-name="Rectangle 1847" width="1.508" height="10.131" transform="translate(13.334 32.204)" fill="#cfd5dd"/>
    <rect id="Rectangle_1848" data-name="Rectangle 1848" width="1.51" height="10.131" transform="translate(16.471 32.203)" fill="#cfd5dd"/>
  </g>
</svg>
